<svg width="18" height="17" viewBox="0 0 18 17" fill="none" xmlns="http://www.w3.org/2000/svg">
<path d="M12.2706 4.09375C13.0464 4.09375 13.6754 3.49213 13.6754 2.75C13.6754 2.00787 13.0464 1.40625 12.2706 1.40625C11.4947 1.40625 10.8658 2.00787 10.8658 2.75C10.8658 3.49213 11.4947 4.09375 12.2706 4.09375Z" fill="#1D2E5B"/>
<path d="M11.4116 7.43228C11.5728 7.66211 11.8041 7.83891 12.074 7.93868C12.3439 8.03844 12.6394 8.05634 12.9203 7.98993L15.2495 7.43295L14.9103 6.12951L12.5811 6.68649L11.6124 5.29773C11.4055 5.00114 11.0843 4.79488 10.719 4.72395L8.01748 4.2066C7.71526 4.14859 7.40148 4.18736 7.1246 4.31693C6.84771 4.4465 6.62312 4.65966 6.48552 4.92349L5.32091 7.15143L6.57753 7.75276L7.74214 5.52415L9.12379 5.78887L5.55131 11.4844H2.4368V12.8281H5.55131C6.04159 12.8281 6.50308 12.5782 6.75595 12.1757L8.10318 10.0284L11.734 10.7231L13.0095 14.3842L14.3413 13.9589L13.0664 10.2985C12.9878 10.0738 12.8486 9.87284 12.6628 9.71596C12.4771 9.55909 12.2515 9.45179 12.0086 9.4049L9.87397 8.99707L11.1186 7.01235L11.4116 7.43228V7.43228Z" fill="#1D2E5B"/>
</svg>
