<svg width="16" height="29" viewBox="0 0 16 29" fill="none" xmlns="http://www.w3.org/2000/svg">
<path d="M15.5494 0.596313C15.3796 0.422613 15.1778 0.284801 14.9557 0.190771C14.7336 0.0967409 14.4955 0.0483398 14.255 0.0483398C14.0145 0.0483398 13.7764 0.0967409 13.5543 0.190771C13.3322 0.284801 13.1304 0.422613 12.9606 0.596313L0.806391 12.9962C0.670803 13.1342 0.563232 13.2982 0.489837 13.4787C0.416441 13.6592 0.378662 13.8527 0.378662 14.0481C0.378662 14.2436 0.416441 14.4371 0.489837 14.6176C0.563232 14.7981 0.670803 14.9621 0.806391 15.1001L12.9606 27.5C13.6773 28.2311 14.8327 28.2311 15.5494 27.5C16.2661 26.7688 15.6724 26.0011 14.9557 25.2699L8.55413 18.7699L4.04435 14L15.5651 2C15.5651 2 16.2661 1.31255 15.5494 0.596313Z" fill="black"/>
</svg>
