<svg width="17" height="29" viewBox="0 0 17 29" fill="none" xmlns="http://www.w3.org/2000/svg">
<path d="M1.28042 28.1736C1.45025 28.3473 1.652 28.4851 1.87412 28.5791C2.09623 28.6732 2.33435 28.7216 2.57483 28.7216C2.8153 28.7216 3.05342 28.6732 3.27554 28.5791C3.49765 28.4851 3.6994 28.3473 3.86923 28.1736L16.0234 15.7737C16.159 15.6357 16.2666 15.4717 16.34 15.2912C16.4134 15.1107 16.4512 14.9172 16.4512 14.7218C16.4512 14.5263 16.4134 14.3328 16.34 14.1523C16.2666 13.9718 16.159 13.8078 16.0234 13.6698L3.86923 1.26992C3.15255 0.538765 1.9971 0.538765 1.28042 1.26992C0.563748 2.00108 1.71808 3.26884 2.43476 4L12.9082 14.7218L1.87412 26C1.17207 26.7162 0.563748 27.4573 1.28042 28.1736Z" fill="black"/>
</svg>
