<svg width="18" height="17" viewBox="0 0 18 17" fill="none" xmlns="http://www.w3.org/2000/svg">
<path d="M13.1047 14.1719C12.5056 14.1719 11.9199 14.0019 11.4218 13.6836C10.9237 13.3652 10.5354 12.9127 10.3061 12.3832C10.0769 11.8538 10.0169 11.2712 10.1338 10.7091C10.2506 10.1471 10.5391 9.63082 10.9628 9.2256C11.3864 8.82038 11.9262 8.54443 12.5138 8.43263C13.1014 8.32083 13.7104 8.37821 14.2639 8.59751C14.8174 8.81681 15.2905 9.18819 15.6234 9.66467C15.9562 10.1412 16.1339 10.7014 16.1339 11.2744C16.133 12.0426 15.8136 12.7791 15.2457 13.3223C14.6778 13.8655 13.9078 14.171 13.1047 14.1719V14.1719ZM13.1047 9.38477C12.714 9.38477 12.332 9.49559 12.0072 9.70323C11.6823 9.91087 11.4291 10.206 11.2795 10.5513C11.13 10.8966 11.0909 11.2765 11.1671 11.6431C11.2434 12.0096 11.4315 12.3463 11.7078 12.6106C11.9841 12.8749 12.3361 13.0548 12.7193 13.1278C13.1025 13.2007 13.4997 13.1632 13.8607 13.0202C14.2217 12.8772 14.5302 12.635 14.7473 12.3242C14.9644 12.0135 15.0803 11.6482 15.0803 11.2744C15.0796 10.7734 14.8713 10.2931 14.501 9.93888C14.1306 9.58462 13.6285 9.38535 13.1047 9.38477V9.38477Z" fill="#1D2E5B"/>
<path d="M4.41233 14.1719C3.81322 14.1719 3.22756 14.0019 2.72942 13.6836C2.23127 13.3652 1.84302 12.9127 1.61375 12.3832C1.38448 11.8538 1.32449 11.2712 1.44137 10.7091C1.55825 10.1471 1.84675 9.63082 2.27039 9.2256C2.69402 8.82038 3.23377 8.54443 3.82137 8.43263C4.40897 8.32083 5.01803 8.37821 5.57154 8.59751C6.12505 8.81681 6.59814 9.18819 6.93099 9.66467C7.26383 10.1412 7.44149 10.7014 7.44149 11.2744C7.44062 12.0426 7.1212 12.7791 6.55331 13.3223C5.98542 13.8655 5.21544 14.171 4.41233 14.1719V14.1719ZM4.41233 9.38477C4.0216 9.38477 3.63965 9.49559 3.31478 9.70323C2.9899 9.91087 2.73669 10.206 2.58717 10.5513C2.43764 10.8966 2.39852 11.2765 2.47475 11.6431C2.55097 12.0096 2.73913 12.3463 3.01541 12.6106C3.29169 12.8749 3.6437 13.0548 4.02692 13.1278C4.41014 13.2007 4.80735 13.1632 5.16834 13.0202C5.52932 12.8772 5.83786 12.635 6.05493 12.3242C6.27201 12.0135 6.38787 11.6482 6.38787 11.2744C6.38726 10.7734 6.17893 10.2931 5.80857 9.93888C5.43822 9.58462 4.93609 9.38535 4.41233 9.38477V9.38477Z" fill="#1D2E5B"/>
<path d="M10.8658 4.09375C11.0045 4.09421 11.142 4.06835 11.2703 4.01767C11.3986 3.96699 11.5151 3.89249 11.613 3.79848C11.711 3.70447 11.7885 3.59282 11.8411 3.46997C11.8937 3.34713 11.9203 3.21553 11.9194 3.08279C11.9209 2.95071 11.8949 2.81967 11.8429 2.69732C11.7908 2.57497 11.7138 2.46377 11.6163 2.37023C11.5189 2.27668 11.4028 2.20267 11.2751 2.15252C11.1474 2.10236 11.0104 2.07707 10.8723 2.07813C10.734 2.07771 10.5969 2.10337 10.4689 2.15364C10.3409 2.2039 10.2245 2.27779 10.1264 2.37108C10.0282 2.46437 9.95025 2.57524 9.8969 2.69736C9.84355 2.81947 9.81587 2.95044 9.81543 3.08279C9.815 3.21514 9.84183 3.34627 9.89438 3.4687C9.94693 3.59113 10.0242 3.70247 10.1217 3.79634C10.2192 3.89022 10.3351 3.9648 10.4628 4.01583C10.5905 4.06686 10.7274 4.09334 10.8658 4.09375V4.09375Z" fill="#1D2E5B"/>
<path d="M12.4314 6.10938H10.9906C10.9669 6.10938 10.9437 6.1033 10.9234 6.09178C10.903 6.08025 10.8863 6.0637 10.875 6.04387L9.82992 4.21186C9.75629 4.07571 9.65018 3.95806 9.52017 3.86843C9.39017 3.77881 9.23993 3.71972 9.08162 3.69595C8.9233 3.67218 8.76136 3.68441 8.6089 3.73163C8.45644 3.77886 8.31775 3.85975 8.20405 3.96778L5.90387 6.18496C5.71062 6.37363 5.60094 6.62633 5.59766 6.89043C5.59766 7.43843 6.01252 7.6337 6.20678 7.74392C7.14516 8.26106 7.80598 8.6393 8.16849 8.84937C8.18777 8.86059 8.2037 8.87636 8.21477 8.89517C8.22584 8.91397 8.23167 8.93518 8.23171 8.95676V11.1336C8.23171 11.4048 8.44968 11.6375 8.73317 11.6511C8.80434 11.6544 8.87547 11.6438 8.94226 11.62C9.00904 11.5963 9.07009 11.5598 9.12171 11.5128C9.17332 11.4658 9.21444 11.4093 9.24256 11.3467C9.27069 11.284 9.28524 11.2166 9.28533 11.1484V8.43995C9.28538 8.35995 9.26552 8.2811 9.22739 8.2099C9.18925 8.13871 9.13395 8.07722 9.06605 8.03052L7.8478 7.19246C7.83251 7.182 7.81973 7.16852 7.81034 7.15294C7.80095 7.13736 7.79515 7.12003 7.79334 7.10213C7.79154 7.08423 7.79375 7.06616 7.79985 7.04915C7.80595 7.03214 7.81579 7.01657 7.8287 7.0035L9.21158 5.59287C9.22576 5.57836 9.24332 5.56726 9.26284 5.56048C9.28236 5.5537 9.30328 5.55143 9.32389 5.55385C9.3445 5.55628 9.36422 5.56333 9.38144 5.57444C9.39866 5.58554 9.41289 5.60039 9.42296 5.61775L10.1414 6.85799C10.1871 6.93661 10.2539 7.00211 10.3349 7.04769C10.416 7.09327 10.5083 7.11727 10.6024 7.11719H12.4462C12.5176 7.11727 12.5882 7.10348 12.6538 7.07665C12.7195 7.04982 12.7787 7.01052 12.828 6.96113C12.8772 6.91174 12.9155 6.85329 12.9404 6.78933C12.9654 6.72536 12.9764 6.65722 12.973 6.58903C12.9592 6.31787 12.7149 6.10938 12.4314 6.10938Z" fill="#1D2E5B"/>
</svg>
