<svg width="28" height="19" viewBox="0 0 28 19" fill="none" xmlns="http://www.w3.org/2000/svg">
<path fill-rule="evenodd" clip-rule="evenodd" d="M24.5439 15.5044L18.0001 9.51085L24.5439 3.51726L23.6516 2.56374L14.1334 11.2817L4.61517 2.56374L3.72284 3.51726L10.2666 9.51085L3.72284 15.5044L4.61517 16.458L11.2333 10.3963L14.1334 13.0525L17.0334 10.3963L23.6516 16.458L24.5439 15.5044ZM2.53704 0.0664062C1.31453 0.0664062 0.323486 1.12243 0.323486 2.42051V16.6012C0.323486 17.9013 1.30649 18.9553 2.53704 18.9553H25.7297C26.9522 18.9553 27.9432 17.8993 27.9432 16.6012V2.42051C27.9432 1.12037 26.9602 0.0664062 25.7297 0.0664062H2.53704Z" fill="#FFD74B"/>
</svg>
