<svg width="32" height="30" viewBox="0 0 32 30" fill="none" xmlns="http://www.w3.org/2000/svg">
<path fill-rule="evenodd" clip-rule="evenodd" d="M15.9999 0.172363C10.407 0.172363 4.80065 1.1177 2.76644 3.00191C1.07869 4.56509 0.516077 7.32664 0.326429 9.07513C0.326429 9.07513 0.300293 9.24791 0.300293 9.32224C0.300293 10.0079 0.888893 10.5578 1.60853 10.5578C1.69357 10.5578 4.84004 10.3168 6.73702 10.1686C6.78267 10.1623 6.82868 10.1562 6.87433 10.1439C7.58086 10.1255 8.1501 9.58166 8.1501 8.90832L8.15643 6.47406C8.15643 5.72035 8.80429 5.11481 9.60241 5.11481H22.3973C23.1956 5.11481 23.8435 5.72028 23.8435 6.47406L23.8499 8.90832C23.8499 9.58166 24.4191 10.1255 25.1255 10.1439C25.1709 10.1563 25.2169 10.1623 25.2631 10.1686C27.1602 10.3167 30.3066 10.5578 30.3913 10.5578C31.1107 10.5578 31.6997 10.0079 31.6997 9.32224C31.6997 9.24791 31.6736 9.07513 31.6736 9.07513C31.4838 7.32664 30.9218 4.56516 29.234 3.00191C27.1991 1.1177 21.5928 0.172363 15.9999 0.172363ZM15.9999 16.2355C14.5542 16.2355 13.3833 17.3413 13.3833 18.7067C13.3833 20.0721 14.5542 21.1778 15.9999 21.1778C17.4456 21.1778 18.6165 20.0721 18.6165 18.7067C18.6165 17.3413 17.4456 16.2355 15.9999 16.2355ZM14.0375 10.6751V9.13061C14.0375 8.2781 13.3047 7.58613 12.4021 7.58613C11.4995 7.58613 10.7668 8.27817 10.7668 9.13061V10.6751L1.94189 19.5779C1.33378 20.1402 0.954269 20.9245 0.954269 21.7897V24.2671C0.954269 25.6325 2.12528 26.7383 3.57089 26.7383H4.22509V28.2829C4.22509 29.1354 4.9579 29.8273 5.8605 29.8273C6.76309 29.8273 7.49583 29.1354 7.49583 28.2829V26.7383H24.504V28.2829C24.504 29.1354 25.2365 29.8273 26.1394 29.8273C27.042 29.8273 27.7746 29.1354 27.7746 28.2829V26.7383H28.4288C29.8745 26.7383 31.0454 25.6325 31.0454 24.2671V21.7897C31.0454 20.9245 30.6659 20.1401 30.0578 19.5779L21.2332 10.6751V9.13061C21.2332 8.2781 20.5003 7.58613 19.5977 7.58613C18.6951 7.58613 17.9625 8.27817 17.9625 9.13061V10.6751H14.0375ZM15.9999 13.7643C18.8913 13.7643 21.2332 15.976 21.2332 18.7067C21.2332 21.4375 18.8913 23.6494 15.9999 23.6494C13.1085 23.6494 10.7667 21.4375 10.7667 18.7067C10.7667 15.976 13.1085 13.7643 15.9999 13.7643Z" fill="#FFD74B"/>
</svg>
